<mxfile host="app.diagrams.net" modified="2022-03-20T08:23:14.976Z" agent="5.0 (Windows NT 10.0; Win64; x64) AppleWebKit/537.36 (KHTML, like Gecko) Chrome/99.0.4844.51 Safari/537.36 Edg/99.0.1150.39" etag="FXsnVOEtqP5JdkkqNoiX" version="17.1.3" type="github">
  <diagram id="C5RBs43oDa-KdzZeNtuy" name="Page-1">
    <mxGraphModel dx="713" dy="454" grid="1" gridSize="10" guides="1" tooltips="1" connect="1" arrows="1" fold="1" page="1" pageScale="1" pageWidth="827" pageHeight="1169" math="0" shadow="0">
      <root>
        <mxCell id="WIyWlLk6GJQsqaUBKTNV-0" />
        <mxCell id="WIyWlLk6GJQsqaUBKTNV-1" parent="WIyWlLk6GJQsqaUBKTNV-0" />
        <mxCell id="W6K0hSEOEhjyCYZdVSs8-0" value="" style="rounded=0;whiteSpace=wrap;html=1;" vertex="1" parent="WIyWlLk6GJQsqaUBKTNV-1">
          <mxGeometry x="200" y="100" width="640" height="100" as="geometry" />
        </mxCell>
        <mxCell id="W6K0hSEOEhjyCYZdVSs8-1" value="追踪溯源中心" style="text;html=1;strokeColor=none;fillColor=none;align=center;verticalAlign=middle;whiteSpace=wrap;rounded=0;fontStyle=1;fontSize=16;" vertex="1" parent="WIyWlLk6GJQsqaUBKTNV-1">
          <mxGeometry x="210" y="100" width="120" height="30" as="geometry" />
        </mxCell>
        <mxCell id="W6K0hSEOEhjyCYZdVSs8-2" value="溯源事件分析" style="rounded=0;whiteSpace=wrap;html=1;fillColor=#dae8fc;strokeColor=#6c8ebf;" vertex="1" parent="WIyWlLk6GJQsqaUBKTNV-1">
          <mxGeometry x="220" y="140" width="100" height="40" as="geometry" />
        </mxCell>
        <mxCell id="W6K0hSEOEhjyCYZdVSs8-3" value="画像溯源分析&lt;span style=&quot;color: rgba(0 , 0 , 0 , 0) ; font-family: monospace ; font-size: 0px&quot;&gt;%3CmxGraphModel%3E%3Croot%3E%3CmxCell%20id%3D%220%22%2F%3E%3CmxCell%20id%3D%221%22%20parent%3D%220%22%2F%3E%3CmxCell%20id%3D%222%22%20value%3D%22%E6%BA%AF%E6%BA%90%E4%BA%8B%E4%BB%B6%E5%88%86%E6%9E%90%22%20style%3D%22rounded%3D0%3BwhiteSpace%3Dwrap%3Bhtml%3D1%3BfillColor%3D%23dae8fc%3BstrokeColor%3D%236c8ebf%3B%22%20vertex%3D%221%22%20parent%3D%221%22%3E%3CmxGeometry%20x%3D%22220%22%20y%3D%22140%22%20width%3D%22120%22%20height%3D%2240%22%20as%3D%22geometry%22%2F%3E%3C%2FmxCell%3E%3C%2Froot%3E%3C%2FmxGraphModel%3E&lt;/span&gt;" style="rounded=0;whiteSpace=wrap;html=1;fillColor=#dae8fc;strokeColor=#6c8ebf;" vertex="1" parent="WIyWlLk6GJQsqaUBKTNV-1">
          <mxGeometry x="380" y="140" width="100" height="40" as="geometry" />
        </mxCell>
        <mxCell id="W6K0hSEOEhjyCYZdVSs8-4" value="追踪溯源辅助" style="rounded=0;whiteSpace=wrap;html=1;fillColor=#dae8fc;strokeColor=#6c8ebf;" vertex="1" parent="WIyWlLk6GJQsqaUBKTNV-1">
          <mxGeometry x="530" y="140" width="100" height="40" as="geometry" />
        </mxCell>
        <mxCell id="W6K0hSEOEhjyCYZdVSs8-5" value="系统监控管理" style="rounded=0;whiteSpace=wrap;html=1;fillColor=#dae8fc;strokeColor=#6c8ebf;" vertex="1" parent="WIyWlLk6GJQsqaUBKTNV-1">
          <mxGeometry x="690" y="140" width="100" height="40" as="geometry" />
        </mxCell>
        <mxCell id="W6K0hSEOEhjyCYZdVSs8-6" value="" style="rounded=0;whiteSpace=wrap;html=1;" vertex="1" parent="WIyWlLk6GJQsqaUBKTNV-1">
          <mxGeometry x="200" y="300" width="270" height="180" as="geometry" />
        </mxCell>
        <mxCell id="W6K0hSEOEhjyCYZdVSs8-7" value="数据接入中心" style="text;html=1;strokeColor=none;fillColor=none;align=center;verticalAlign=middle;whiteSpace=wrap;rounded=0;fontStyle=1;fontSize=16;" vertex="1" parent="WIyWlLk6GJQsqaUBKTNV-1">
          <mxGeometry x="210" y="310" width="120" height="30" as="geometry" />
        </mxCell>
        <mxCell id="W6K0hSEOEhjyCYZdVSs8-8" value="数据标准化" style="rounded=0;whiteSpace=wrap;html=1;fillColor=#dae8fc;strokeColor=#6c8ebf;" vertex="1" parent="WIyWlLk6GJQsqaUBKTNV-1">
          <mxGeometry x="220" y="350" width="100" height="40" as="geometry" />
        </mxCell>
        <mxCell id="W6K0hSEOEhjyCYZdVSs8-9" value="数据预处理" style="rounded=0;whiteSpace=wrap;html=1;fillColor=#dae8fc;strokeColor=#6c8ebf;" vertex="1" parent="WIyWlLk6GJQsqaUBKTNV-1">
          <mxGeometry x="220" y="420" width="100" height="40" as="geometry" />
        </mxCell>
        <mxCell id="W6K0hSEOEhjyCYZdVSs8-10" value="数据采集" style="rounded=0;whiteSpace=wrap;html=1;fillColor=#dae8fc;strokeColor=#6c8ebf;" vertex="1" parent="WIyWlLk6GJQsqaUBKTNV-1">
          <mxGeometry x="350" y="350" width="100" height="40" as="geometry" />
        </mxCell>
        <mxCell id="W6K0hSEOEhjyCYZdVSs8-11" value="数据存储" style="rounded=0;whiteSpace=wrap;html=1;fillColor=#dae8fc;strokeColor=#6c8ebf;" vertex="1" parent="WIyWlLk6GJQsqaUBKTNV-1">
          <mxGeometry x="350" y="420" width="100" height="40" as="geometry" />
        </mxCell>
        <mxCell id="W6K0hSEOEhjyCYZdVSs8-12" value="" style="rounded=0;whiteSpace=wrap;html=1;" vertex="1" parent="WIyWlLk6GJQsqaUBKTNV-1">
          <mxGeometry x="550" y="300" width="290" height="180" as="geometry" />
        </mxCell>
        <mxCell id="W6K0hSEOEhjyCYZdVSs8-13" value="检测分析中心" style="text;html=1;strokeColor=none;fillColor=none;align=center;verticalAlign=middle;whiteSpace=wrap;rounded=0;fontStyle=1;fontSize=16;" vertex="1" parent="WIyWlLk6GJQsqaUBKTNV-1">
          <mxGeometry x="550" y="310" width="120" height="30" as="geometry" />
        </mxCell>
        <mxCell id="W6K0hSEOEhjyCYZdVSs8-14" value="关联分析管理" style="rounded=0;whiteSpace=wrap;html=1;fillColor=#dae8fc;strokeColor=#6c8ebf;" vertex="1" parent="WIyWlLk6GJQsqaUBKTNV-1">
          <mxGeometry x="570" y="350" width="100" height="40" as="geometry" />
        </mxCell>
        <mxCell id="W6K0hSEOEhjyCYZdVSs8-15" value="攻击链聚合分析管理" style="rounded=0;whiteSpace=wrap;html=1;fillColor=#dae8fc;strokeColor=#6c8ebf;" vertex="1" parent="WIyWlLk6GJQsqaUBKTNV-1">
          <mxGeometry x="570" y="420" width="100" height="40" as="geometry" />
        </mxCell>
        <mxCell id="W6K0hSEOEhjyCYZdVSs8-16" value="安全信息管理" style="rounded=0;whiteSpace=wrap;html=1;fillColor=#dae8fc;strokeColor=#6c8ebf;" vertex="1" parent="WIyWlLk6GJQsqaUBKTNV-1">
          <mxGeometry x="720" y="350" width="100" height="40" as="geometry" />
        </mxCell>
        <mxCell id="W6K0hSEOEhjyCYZdVSs8-17" value="白名单管理" style="rounded=0;whiteSpace=wrap;html=1;fillColor=#dae8fc;strokeColor=#6c8ebf;" vertex="1" parent="WIyWlLk6GJQsqaUBKTNV-1">
          <mxGeometry x="720" y="420" width="100" height="40" as="geometry" />
        </mxCell>
      </root>
    </mxGraphModel>
  </diagram>
</mxfile>
